<svg xmlns="http://www.w3.org/2000/svg" xmlns:xlink="http://www.w3.org/1999/xlink" class="am-diagram" role="graphics-document document" aria-labelledby="archimate-svg-title" aria-describedby="archimate-svg-description" viewBox="24 114 922 282" width="922" height="282"><rect width="100%" height="100%" fill="white"/><title id="archimate-svg-title">ArchiMate diagram</title><desc id="archimate-svg-description">ArchiMate view with named diagram elements and relationships.</desc><style>/* ArchiMate 4 design system — generated from tokens/tokens.json. Notation colours are part of the
   standard and are intentionally identical in light and dark canvases. */
.am-diagram {
  --am-common: #E5DFD3;
  --am-strategy: #EFBD5D;
  --am-business: #EDD779;
  --am-application: #B0D0D9;
  --am-technology: #BCD9AE;
  --am-motivation: #D1BADC;
  --am-implementation: #F1BBB7;
  --am-stroke: #000; --am-grouping-stroke: #585858; --am-label: #000;
  --am-canvas: #fff; --am-line: 1px; --am-font: Arial, Helvetica, 'Liberation Sans', sans-serif;
  --am-dot: 1 1; --am-dash: 4 1;
}
@media (prefers-color-scheme: dark) { .am-diagram:not([data-theme='light']) { --am-canvas: #1e1f22; } }
.am-diagram[data-theme='dark'] { --am-canvas: #1e1f22; }
.am-diagram { background: var(--am-canvas); font-family: var(--am-font); }
.am-diagram .am-shape { stroke: var(--am-stroke); stroke-width: var(--am-line); }
.am-diagram .am-label { fill: var(--am-label); font-family: var(--am-font); }
.am-diagram [data-domain='common'] { --am-fill: var(--am-common); }
.am-diagram [data-domain='strategy'] { --am-fill: var(--am-strategy); }
.am-diagram [data-domain='business'] { --am-fill: var(--am-business); }
.am-diagram [data-domain='application'] { --am-fill: var(--am-application); }
.am-diagram [data-domain='technology'] { --am-fill: var(--am-technology); }
.am-diagram [data-domain='motivation'] { --am-fill: var(--am-motivation); }
.am-diagram [data-domain='implementation'] { --am-fill: var(--am-implementation); }
.am-diagram [data-type='Grouping'] .am-shape { fill: #fff; stroke: var(--am-grouping-stroke); stroke-dasharray: 6 3; }
.am-diagram .am-shape, .am-diagram .am-icon .f { fill: var(--am-fill, #fff); }
.am-diagram .am-icon { fill: none; stroke: var(--am-stroke); stroke-width: 1.1; stroke-linejoin: round; stroke-linecap: round; }
.am-diagram .am-icon .k { fill: var(--am-stroke); stroke: none; } .am-diagram .am-icon .g { stroke: var(--am-grouping-stroke); stroke-dasharray: 1.2 1; }
.am-diagram .am-rel { fill: none; stroke: var(--am-stroke); stroke-width: var(--am-line); }
.am-diagram .am-rel--realization { stroke-dasharray: var(--am-dot); }
.am-diagram .am-rel--access { stroke-dasharray: var(--am-dot); }
.am-diagram .am-rel--influence { stroke-dasharray: var(--am-dash); }
.am-diagram .am-rel--flow { stroke-dasharray: var(--am-dash); }
/* Grid-card helper for documentation pages */
.am-diagram .am-swatch { display:inline-block; width:1em; height:1em; border:1px solid #000; vertical-align:middle; }
</style><defs aria-hidden="true"><symbol id="archimate-export-id-0" viewBox="0 0 20 16"><path class="f" d="M4 3h11a3 5 0 0 1 0 10H4a3 5 0 0 1 0-10z"/><ellipse class="f" cx="15" cy="8" rx="3" ry="5"/></symbol><symbol id="archimate-export-id-1" viewBox="0 0 20 16"><circle class="f" cx="7.5" cy="8" r="5"/><circle class="f" cx="12.5" cy="8" r="5" fill-opacity="0.5"/><circle cx="7.5" cy="8" r="5"/></symbol><symbol id="archimate-export-id-2" viewBox="0 0 20 16"><path stroke-width="2" stroke-linejoin="miter" d="M6 4.5 2.5 8 6 11.5M14 4.5l3.5 3.5-3.5 3.5"/><path stroke-width="2" d="M8 8h1.4M10.6 8H12"/></symbol><symbol id="archimate-export-id-3" viewBox="0 0 20 16"><path class="f" d="M2 6h10V3l6 5-6 5v-3H2z"/></symbol><symbol id="archimate-export-id-4" viewBox="0 0 20 16"><path class="f" d="M3 14V6l7-4 7 4v8l-7-4z"/></symbol><symbol id="archimate-export-id-5" viewBox="0 0 20 16"><rect class="f" x="2" y="4" width="16" height="8" rx="4"/></symbol><symbol id="archimate-export-id-6" viewBox="0 0 20 16"><path class="f" d="M3 4h10a4 4 0 0 1 0 8H3l3-4z"/></symbol><symbol id="archimate-export-id-7" viewBox="0 0 20 16"><path class="g" d="M2 5.5V2h9v3.5M2 5.5h16V14H2z"/></symbol><symbol id="archimate-export-id-8" viewBox="0 0 20 16"><path class="f" d="M10 15.2C8.4 11.8 5 9.6 5 6.2a5 5 0 0 1 10 0c0 3.4-3.4 5.6-5 9z"/></symbol><symbol id="archimate-export-id-9" viewBox="0 0 20 16"><path class="f" d="M4 3h11a3 5 0 0 1 0 10H4a3 5 0 0 1 0-10z"/><ellipse class="f" cx="15" cy="8" rx="3" ry="5"/></symbol><symbol id="archimate-export-id-10" viewBox="0 0 20 16"><circle stroke-width="1.8" class="f" cx="10" cy="8" r="4.6"/><circle class="k" cx="10" cy="8" r="1.4"/><path d="M11.40 8.00L17.00 8.00"/><path d="M10.99 8.99L14.95 12.95"/><path d="M10.00 9.40L10.00 15.00"/><path d="M9.01 8.99L5.05 12.95"/><path d="M8.60 8.00L3.00 8.00"/><path d="M9.01 7.01L5.05 3.05"/><path d="M10.00 6.60L10.00 1.00"/><path d="M10.99 7.01L14.95 3.05"/></symbol><symbol id="archimate-export-id-11" viewBox="0 0 20 16"><circle class="f" cx="12" cy="6" r="4.3"/><path d="M9 9.2 3 15"/></symbol><symbol id="archimate-export-id-12" viewBox="0 0 20 16"><circle class="f" cx="10" cy="8" r="6.5"/><circle cx="10" cy="8" r="4.3"/><circle class="k" cx="10" cy="8" r="2.2"/></symbol><symbol id="archimate-export-id-13" viewBox="0 0 20 16"><circle class="f" cx="9" cy="9" r="6"/><circle cx="9" cy="9" r="4"/><circle cx="9" cy="9" r="2"/><path stroke-width="1.6" d="M9 9l6.5-6.5"/><path class="k" d="M8.2 9.8l1-3.6 2.6 2.6z"/><path d="M14.3 1.2l1.2 1.3 1.6-.5M15.5 2.5l.3 2.1"/></symbol><symbol id="archimate-export-id-14" viewBox="0 0 20 16"><rect class="f" x="4" y="1.5" width="12" height="13" rx="2.5"/><path stroke-width="2" d="M10 4v5.6"/><circle class="k" cx="10" cy="12" r="1.1"/></symbol><symbol id="archimate-export-id-15" viewBox="0 0 20 16"><path class="f" d="M5.5 3.5h13l-4 9H1.5z"/></symbol><symbol id="archimate-export-id-16" viewBox="0 0 20 16"><path class="f" d="M6 11.5c-2.5.4-4-1.4-3.2-3.2C1.6 6.9 3 4.8 5 5.2 5.4 3 8 2.4 9.4 3.8c1-1.6 3.8-1.4 4.4.4 2-.8 4.2 1 3.4 3 1.8.8 1.4 3.6-.6 3.8-.4 1.8-3 2.2-4.2 1-1.2 1.4-4 1.4-4.8-.2-.6.1-1.2 0-1.6-.3z"/><circle class="f" cx="3.6" cy="13" r="1.3"/><circle class="f" cx="1.8" cy="15" r=".8"/></symbol><symbol id="archimate-export-id-17" viewBox="0 0 20 16"><ellipse class="f" cx="10" cy="8" rx="8" ry="4.6"/></symbol><symbol id="archimate-export-id-18" viewBox="0 0 20 16"><rect class="f" x="1.5" y="4" width="15" height="9" rx="1.8"/><rect class="f" x="16.5" y="6.5" width="2" height="4" rx=".5"/><path d="M6 6.3v4.4M9 6.3v4.4M12 6.3v4.4"/></symbol><symbol id="archimate-export-id-19" viewBox="0 0 20 16"><path class="f" d="M3 10h4.3v4.3H3zM7.3 10h4.3v4.3H7.3zM11.6 10h4.3v4.3h-4.3zM7.3 5.7h4.3V10H7.3zM11.6 5.7h4.3V10h-4.3zM11.6 1.4h4.3v4.3h-4.3z"/></symbol><symbol id="archimate-export-id-20" viewBox="0 0 20 16"><path class="f" d="M2 4h11.5l4.5 4-4.5 4H2l4-4z"/></symbol><symbol id="archimate-export-id-21" viewBox="0 0 20 16"><circle class="f" cx="14" cy="6" r="4.2"/><circle cx="14" cy="6" r="2.2"/><circle class="k" cx="14" cy="6" r=".8"/><path stroke-width="2" d="M3 15c.4-4 2.8-6.2 6.6-6.6"/><path class="k" d="M8.4 6.2 12 8.2 8.8 10.8z"/></symbol><symbol id="archimate-export-id-22" viewBox="0 0 20 16"><circle class="f" cx="10" cy="3.3" r="2.3"/><path d="M10 5.6V10M5.5 7.5h9M10 10l-4 5M10 10l4 5"/></symbol><symbol id="archimate-export-id-23" viewBox="0 0 20 16"><path d="M1.5 8h7"/><circle class="f" cx="13" cy="8" r="4.5"/></symbol><symbol id="archimate-export-id-24" viewBox="0 0 20 16"><rect class="f" x="2" y="3" width="16" height="11"/><path d="M2 6.2h16"/></symbol><symbol id="archimate-export-id-25" viewBox="0 0 20 16"><rect class="f" x="2" y="3" width="16" height="11"/><path d="M2 6.2h8V3"/></symbol><symbol id="archimate-export-id-26" viewBox="0 0 20 16"><rect class="f" x="6" y="2" width="12" height="12"/><rect class="f" x="3.5" y="4.3" width="5" height="2.4"/><rect class="f" x="3.5" y="9.3" width="5" height="2.4"/></symbol><symbol id="archimate-export-id-27" viewBox="0 0 20 16"><path d="M1.5 8h7"/><circle class="f" cx="13" cy="8" r="4.5"/></symbol><symbol id="archimate-export-id-28" viewBox="0 0 20 16"><rect class="f" x="2" y="3" width="16" height="11"/><path d="M2 6.2h16"/></symbol><symbol id="archimate-export-id-29" viewBox="0 0 20 16"><path class="f" d="M2 6h12v8H2z"/><path class="f" d="M2 6l3-3h12l-3 3z"/><path class="f" d="M14 6l3-3v8l-3 3z"/></symbol><symbol id="archimate-export-id-30" viewBox="0 0 20 16"><path d="M1.5 8h7"/><circle class="f" cx="13" cy="8" r="4.5"/></symbol><symbol id="archimate-export-id-31" viewBox="0 0 20 16"><rect class="f" x="2" y="2" width="16" height="9.5" rx="1.8"/><path class="f" d="M5.5 11.5 2 14.5h16l-3.5-3z"/></symbol><symbol id="archimate-export-id-32" viewBox="0 0 20 16"><circle class="f" cx="11.5" cy="6.5" r="5"/><circle class="f" cx="8.5" cy="9.3" r="5"/></symbol><symbol id="archimate-export-id-33" viewBox="0 0 20 16"><path class="f" d="M11.43 9.19 L11.43 10.81 L10.32 10.72 L9.86 11.84 L10.70 12.56 L9.56 13.70 L8.84 12.86 L7.72 13.32 L7.81 14.43 L6.19 14.43 L6.28 13.32 L5.16 12.86 L4.44 13.70 L3.30 12.56 L4.14 11.84 L3.68 10.72 L2.57 10.81 L2.57 9.19 L3.68 9.28 L4.14 8.16 L3.30 7.44 L4.44 6.30 L5.16 7.14 L6.28 6.68 L6.19 5.57 L7.81 5.57 L7.72 6.68 L8.84 7.14 L9.56 6.30 L10.70 7.44 L9.86 8.16 L10.32 9.28Z"/><circle cx="7" cy="10" r="1.29"/><path class="f" d="M17.34 4.30 L17.34 5.70 L16.33 5.61 L15.94 6.57 L16.71 7.22 L15.72 8.21 L15.07 7.44 L14.11 7.83 L14.20 8.84 L12.80 8.84 L12.89 7.83 L11.93 7.44 L11.28 8.21 L10.29 7.22 L11.06 6.57 L10.67 5.61 L9.66 5.70 L9.66 4.30 L10.67 4.39 L11.06 3.43 L10.29 2.78 L11.28 1.79 L11.93 2.56 L12.89 2.17 L12.80 1.16 L14.20 1.16 L14.11 2.17 L15.07 2.56 L15.72 1.79 L16.71 2.78 L15.94 3.43 L16.33 4.39Z"/><circle cx="13.5" cy="5" r="1.10"/></symbol><symbol id="archimate-export-id-34" viewBox="0 0 20 16"><path class="f" d="M2 15V1.5h3v7l4-3v3l4-3v3l4-3V15z"/></symbol><symbol id="archimate-export-id-35" viewBox="0 0 20 16"><path d="M7 3.5h9.5L13 12.5H3.5z"/><circle class="k" cx="7" cy="3.5" r="2.2"/><circle class="k" cx="16.5" cy="3.5" r="2.2"/><circle class="k" cx="13" cy="12.5" r="2.2"/><circle class="k" cx="3.5" cy="12.5" r="2.2"/></symbol><symbol id="archimate-export-id-36" viewBox="0 0 20 16"><path class="f" stroke-width="1.4" d="M2 8 6 4v2.4h8V4l4 4-4 4V9.6H6V12z"/><path stroke-width="1.8" stroke-linecap="butt" d="M5.6 6.4h8.8M5.6 9.6h8.8"/></symbol><symbol id="archimate-export-id-37" viewBox="0 0 20 16"><path class="f" d="M4 1.5h8l4 4v9.5H4z"/><path d="M12 1.5v4h4"/></symbol><symbol id="archimate-export-id-38" viewBox="0 0 20 16"><path class="f" d="M6 2h8l4 6-4 6H6L2 8z"/><path d="M4.6 7.4 7.1 3.7M12.9 3.7l2.5 3.7M7 11.8h6"/></symbol><symbol id="archimate-export-id-39" viewBox="0 0 20 16"><path stroke-width="1.6" d="M11.2 11.3A5 5 0 1 0 8 12.5h6.5"/><path class="k" d="M14 10l4 2.5-4 2.5z"/></symbol><symbol id="archimate-export-id-40" viewBox="0 0 20 16"><path class="f" d="M2 2.5h16v10.5c-2.2-2.6-4.6-1.8-6.6.2-2.4 2.3-6.2 2-9.4-.8z"/></symbol><symbol id="archimate-export-id-41" viewBox="0 0 20 16"><path stroke-width="2.4" stroke-linecap="butt" d="M7.5 4h10.5M5 8h10.5M2.5 12h10.5"/></symbol><marker id="archimate-export-id-42" viewBox="0 0 20 20" refX="0" refY="3" markerWidth="20" markerHeight="20" orient="auto"><circle cx="3" cy="3" r="3" style="stroke-width: 1px; stroke-linecap: round; stroke-dasharray: 10000, 1; fill: rgb(0, 0, 0); stroke: none;"/></marker><marker id="archimate-export-id-43" viewBox="0 0 20 20" refX="11" refY="10" markerWidth="20" markerHeight="20" orient="auto"><path d="M 1 5 L 11 10 L 1 15 Z" style="stroke-width: 1px; stroke-linecap: round; stroke-dasharray: 10000, 1; fill: rgb(0, 0, 0); stroke: none;"/></marker><marker id="archimate-export-id-44" viewBox="0 0 20 20" refX="11" refY="10" markerWidth="20" markerHeight="20" orient="auto"><path d="M 1 5 L 11 10 L 1 15 Z" style="stroke-width: 1px; stroke-linecap: round; stroke-dasharray: 10000, 1; fill: white; stroke: rgb(0, 0, 0);"/></marker><marker id="archimate-export-id-45" viewBox="0 0 20 20" refX="12" refY="10" markerWidth="18" markerHeight="18" orient="auto"><path d="M 1 5 L 11 10 L 1 15" style="stroke-width: 1.5px; stroke-linecap: round; stroke-dasharray: 10000, 1; fill: none; stroke: rgb(0, 0, 0);"/></marker></defs><g class="djs-group"><g class="djs-element djs-shape" transform="matrix(1 0 0 1 40 130)" style="display: block;"><g class="djs-visual" role="graphics-object group" aria-label="BusinessActor: Customer"><rect x="0" y="0" width="150" height="80" rx="0" ry="0" class="am-shape" style="stroke: rgb(0, 0, 0); stroke-width: 1px; fill: rgb(237, 215, 121);" aria-hidden="true"/><text lineHeight="1.4" class="djs-label" style="font-family: Quicksand; font-size: 13px; font-weight: 500; fill: black;" aria-hidden="true"><tspan x="49.7236328125" y="44.55" aria-hidden="true">Customer</tspan></text><svg viewBox="0 0 20 16" x="125" y="2" width="22" height="17.6" class="am-icon" style="--am-fill:#EDD779;--am-stroke:#000000" aria-hidden="true"><circle class="f" cx="10" cy="3.3" r="2.3" aria-hidden="true"/><path d="M10 5.6V10M5.5 7.5h9M10 10l-4 5M10 10l4 5" aria-hidden="true"/></svg></g><rect class="djs-hit djs-hit-all" x="0" y="0" width="150" height="80" style="fill: none; stroke-opacity: 0; stroke: white; stroke-width: 15px;" aria-hidden="true"/></g></g><g class="djs-group"><g class="djs-element djs-shape" transform="matrix(1 0 0 1 260 130)" style="display: block;"><g class="djs-visual" role="graphics-object group" aria-label="BusinessProcess: Submit request"><rect x="0" y="0" width="170" height="80" rx="8.751999999999999" ry="8.751999999999999" class="am-shape" style="stroke: rgb(0, 0, 0); stroke-width: 1px; fill: rgb(237, 215, 121);" aria-hidden="true"/><text lineHeight="1.4" class="djs-label" style="font-family: Quicksand; font-size: 13px; font-weight: 500; fill: black;" aria-hidden="true"><tspan x="45.822265625" y="44.55" aria-hidden="true">Submit request</tspan></text><svg viewBox="0 0 20 16" x="145" y="2" width="22" height="17.6" class="am-icon" style="--am-fill:#EDD779;--am-stroke:#000000" aria-hidden="true"><path class="f" d="M2 6h10V3l6 5-6 5v-3H2z" aria-hidden="true"/></svg></g><rect class="djs-hit djs-hit-all" x="0" y="0" width="170" height="80" style="fill: none; stroke-opacity: 0; stroke: white; stroke-width: 15px;" aria-hidden="true"/></g></g><g class="djs-group"><g class="djs-element djs-shape" transform="matrix(1 0 0 1 510 130)" style="display: block;"><g class="djs-visual" role="graphics-object group" aria-label="ApplicationService: Request service"><rect x="0" y="0" width="170" height="80" rx="8.751999999999999" ry="8.751999999999999" class="am-shape" style="stroke: rgb(0, 0, 0); stroke-width: 1px; fill: rgb(176, 208, 217);" aria-hidden="true"/><text lineHeight="1.4" class="djs-label" style="font-family: Quicksand; font-size: 13px; font-weight: 500; fill: black;" aria-hidden="true"><tspan x="44.029052734375" y="44.55" aria-hidden="true">Request service</tspan></text><svg viewBox="0 0 20 16" x="145" y="2" width="22" height="17.6" class="am-icon" style="--am-fill:#B0D0D9;--am-stroke:#000000" aria-hidden="true"><rect class="f" x="2" y="4" width="16" height="8" rx="4" aria-hidden="true"/></svg></g><rect class="djs-hit djs-hit-all" x="0" y="0" width="170" height="80" style="fill: none; stroke-opacity: 0; stroke: white; stroke-width: 15px;" aria-hidden="true"/></g></g><g class="djs-group"><g class="djs-element djs-shape" transform="matrix(1 0 0 1 510 300)" style="display: block;"><g class="djs-visual" role="graphics-object group" aria-label="ApplicationComponent: Request portal"><rect x="0" y="0" width="170" height="80" rx="0" ry="0" class="am-shape" style="stroke: rgb(0, 0, 0); stroke-width: 1px; fill: rgb(176, 208, 217);" aria-hidden="true"/><text lineHeight="1.4" class="djs-label" style="font-family: Quicksand; font-size: 13px; font-weight: 500; fill: black;" aria-hidden="true"><tspan x="47.272705078125" y="44.55" aria-hidden="true">Request portal</tspan></text><svg viewBox="0 0 20 16" x="145" y="2" width="22" height="17.6" class="am-icon" style="--am-fill:#B0D0D9;--am-stroke:#000000" aria-hidden="true"><rect class="f" x="6" y="2" width="12" height="12" aria-hidden="true"/><rect class="f" x="3.5" y="4.3" width="5" height="2.4" aria-hidden="true"/><rect class="f" x="3.5" y="9.3" width="5" height="2.4" aria-hidden="true"/></svg></g><rect class="djs-hit djs-hit-all" x="0" y="0" width="170" height="80" style="fill: none; stroke-opacity: 0; stroke: white; stroke-width: 15px;" aria-hidden="true"/></g></g><g class="djs-group"><g class="djs-element djs-shape" transform="matrix(1 0 0 1 760 300)" style="display: block;"><g class="djs-visual" role="graphics-object group" aria-label="Node: Cloud platform"><rect x="0" y="0" width="170" height="80" rx="0" ry="0" class="am-shape" style="stroke: rgb(0, 0, 0); stroke-width: 1px; fill: rgb(188, 217, 174);" aria-hidden="true"/><text lineHeight="1.4" class="djs-label" style="font-family: Quicksand; font-size: 13px; font-weight: 500; fill: black;" aria-hidden="true"><tspan x="45.101806640625" y="44.55" aria-hidden="true">Cloud platform</tspan></text><svg viewBox="0 0 20 16" x="145" y="2" width="22" height="17.6" class="am-icon" style="--am-fill:#BCD9AE;--am-stroke:#000000" aria-hidden="true"><path class="f" d="M2 6h12v8H2z" aria-hidden="true"/><path class="f" d="M2 6l3-3h12l-3 3z" aria-hidden="true"/><path class="f" d="M14 6l3-3v8l-3 3z" aria-hidden="true"/></svg></g><rect class="djs-hit djs-hit-all" x="0" y="0" width="170" height="80" style="fill: none; stroke-opacity: 0; stroke: white; stroke-width: 15px;" aria-hidden="true"/></g></g><g class="djs-group"><g class="djs-element djs-connection" style="display: block;"><g class="djs-visual" role="graphics-object group" aria-label="Assignment: Assigns request, from Customer to Submit request"><path style="fill: none; stroke: rgb(0, 0, 0); stroke-width: 1; stroke-linejoin: round; marker-start: url('#archimate-export-id-42'); marker-end: url('#archimate-export-id-43');" d="M190,170L260,170" class="am-rel" aria-hidden="true"/></g><path d="M190,170L260,170" class="djs-hit djs-hit-stroke" style="fill: none; stroke-opacity: 0; stroke: white; stroke-width: 15px;" aria-hidden="true"/></g></g><g class="djs-group"><g class="djs-element djs-shape" transform="matrix(1 0 0 1 187 160)" style="display: block;"><g class="djs-visual"><text lineHeight="1.4" class="djs-label" style="font-family: Quicksand; font-size: 12px; font-weight: 500; fill: black;" aria-hidden="true"><tspan x="0" y="12.599999999999998">Assigns request</tspan></text></g><rect class="djs-hit djs-hit-all" x="0" y="0" width="76" height="17" style="fill: none; stroke-opacity: 0; stroke: white; stroke-width: 15px;" aria-hidden="true"/></g></g><g class="djs-group"><g class="djs-element djs-connection" style="display: block;"><g class="djs-visual" role="graphics-object group" aria-label="Realization: from Submit request to Request service"><path style="fill: none; stroke: rgb(0, 0, 0); stroke-width: 1; stroke-linejoin: round; stroke-dasharray: 1, 1; marker-end: url('#archimate-export-id-44');" d="M430,170L510,170" class="am-rel" aria-hidden="true"/></g><path d="M430,170L510,170" class="djs-hit djs-hit-stroke" style="fill: none; stroke-opacity: 0; stroke: white; stroke-width: 15px;" aria-hidden="true"/></g></g><g class="djs-group"><g class="djs-element djs-connection" style="display: block;"><g class="djs-visual" role="graphics-object group" aria-label="Serving: from Request portal to Request service"><path style="fill: none; stroke: rgb(0, 0, 0); stroke-width: 1; stroke-linejoin: round; marker-end: url('#archimate-export-id-45');" d="M595,300L595,210" class="am-rel" aria-hidden="true"/></g><path d="M595,300L595,210" class="djs-hit djs-hit-stroke" style="fill: none; stroke-opacity: 0; stroke: white; stroke-width: 15px;" aria-hidden="true"/></g></g><g class="djs-group"><g class="djs-element djs-connection" style="display: block;"><g class="djs-visual" role="graphics-object group" aria-label="Assignment: from Request portal to Cloud platform"><path style="fill: none; stroke: rgb(0, 0, 0); stroke-width: 1; stroke-linejoin: round; marker-start: url('#archimate-export-id-42'); marker-end: url('#archimate-export-id-43');" d="M680,340L760,340" class="am-rel" aria-hidden="true"/></g><path d="M680,340L760,340" class="djs-hit djs-hit-stroke" style="fill: none; stroke-opacity: 0; stroke: white; stroke-width: 15px;" aria-hidden="true"/></g></g></svg>